<svg version="1.1" xmlns="http://www.w3.org/2000/svg" viewBox="0 0 250 250"><desc>Created with Snap</desc><defs></defs><g transform="matrix(0.0477,0,0,0.0477,50.5087,137.2162)"><g transform="matrix(11.719,0,0,11.719,-782.7208,-2599.809)">
<g id="gSkxa2u23ir3">
	<g>
		<g>
			<g>
				<path d="M394.35947,201.70563c-1.02484,40.03262-14.36957,79.1557-38.30353,111.29541
					c-22.98865,30.87024-55.09421,54.61053-91.40369,67.40912c-38.09433,13.4277-80.22023,14.55121-119.00087,3.27557
					c-37.12295-10.79367-70.57287-32.86734-95.24805-62.61133C25.38264,290.91394,9.88069,253.392,6.43797,214.34755
					c-3.55445-40.31158,7.97381-81.86205,29.65278-115.82537c20.75089-32.50934,51.17118-58.51607,86.54323-73.89827
					C159.49695,8.59337,201.11905,4.49347,240.4381,12.7976c38.12755,8.05249,73.35225,27.80426,100.24336,55.98933
					c26.89423,28.18832,44.95993,64.29681,51.21994,102.76215c1.63016,10.01682,2.66824,20.29828,2.45099,30.45525
					c-0.02887,1.35051-0.02158,2.70317-0.01062,4.05388c0.00223,0.2735,0.01791,2.12119,0.04053,1.06296
					c0.42706-19.9673-1.16046-39.76802-6.2027-59.1438c-5.04739-19.39552-13.13757-37.97497-23.87042-54.89912
					c-21.23846-33.48996-52.69785-60.1273-89.29248-75.43089C236.89044,1.70323,193.83626-1.60377,153.70093,8.22285
					c-38.68525,9.47159-73.96521,31.07151-100.14757,61.06426C26.99277,99.71315,10.40321,138.17885,6.57031,178.38963
					c-3.79564,39.8199,2.91581,80.28514,21.77678,115.73189c18.54498,34.85291,47.74068,63.68491,82.8444,81.75653
					c36.80142,18.94559,79.42824,25.57199,120.27161,18.93204c39.36627-6.39981,76.25104-25.18701,104.71246-53.1062
					c28.71466-28.16757,48.28406-65.08585,55.27084-104.71338c1.72244-9.76938,2.67499-19.65547,2.9288-29.57066
					C394.42081,205.6396,394.32358,203.10771,394.35947,201.70563z" fill="#832161" style=""></path>
			</g>
			<g>
				<path d="M384.16437,200.95979c-0.96948,37.67242-13.51837,74.48354-36.03699,104.73305
					c-21.60678,29.02463-51.78247,51.36957-85.91025,63.42532c-35.70105,12.61154-75.16084,13.75424-111.55208,3.31155
					c-35.07212-10.06412-66.70206-30.8139-90.04433-58.84158c-23.57951-28.31256-38.23566-63.55717-41.5681-100.25949
					c-3.44505-37.94264,7.43247-77.10228,27.82195-109.0798c19.50157-30.58497,48.08769-55.05418,81.33714-69.56021
					c34.64224-15.11367,73.79033-19.02391,110.77145-11.27026c35.87495,7.52172,69.03416,26.02512,94.38576,52.48471
					c25.34052,26.44804,42.41953,60.36095,48.39987,96.51042c1.56839,9.48041,2.5929,19.22691,2.38849,28.84497
					c-0.02872,1.35051-0.02161,2.70317-0.01062,4.05388c0.0022,0.2735,0.01804,2.1212,0.04053,1.06296
					c0.3988-18.7643-1.03699-37.36839-5.73373-55.58963c-4.71414-18.28885-12.30157-35.81488-22.38492-51.78335
					C336.125,67.41871,306.52921,42.26576,272.0787,27.80338c-35.89688-15.06956-76.44377-18.24041-114.26489-9.02209
					c-36.45747,8.88595-69.70293,29.21078-94.38911,57.45163C38.38953,104.87299,22.7417,141.1198,19.13585,178.99318
					c-3.56545,37.44904,2.62349,75.50336,20.28055,108.89131c17.38305,32.86981,44.8184,60.08994,77.84254,77.18311
					c34.63775,17.92841,74.77824,24.23904,113.27341,18.05304c37.21521-5.98032,72.10785-23.73868,98.97885-50.15134
					c26.93942-26.47995,45.29636-61.12494,51.8902-98.33336c1.6369-9.23688,2.53745-18.58603,2.77872-27.96193
					C384.22592,204.89378,384.1283,202.36186,384.16437,200.95979z" fill="#832161" style=""></path>
			</g>
			<g>
				<path d="M378.12955,191.33397c-0.90213,34.82123-12.46313,68.84239-33.23041,96.83885
					c-20.05997,27.04294-48.12695,47.84525-79.88693,59.05234c-32.96756,11.63321-69.41772,12.71161-103.03377,3.12222
					c-32.53439-9.28085-61.88795-28.46027-83.57378-54.41476c-21.90107-26.21207-35.53071-58.8539-38.68074-92.87173
					c-3.24719-35.06709,6.89833-71.32854,25.72519-100.88348c18.06519-28.35925,44.55944-51.06163,75.37902-64.51524
					c32.12216-14.02223,68.38997-17.64727,102.68657-10.47926c33.12975,6.92413,63.7787,23.98623,87.24452,48.35861
					c23.54791,24.45763,39.4556,55.85356,45.08145,89.34676c1.47507,8.78174,2.46973,17.83081,2.28183,26.74438
					c-0.02847,1.35052-0.02161,2.70316-0.01065,4.05388c0.00223,0.27348,0.01825,2.1212,0.04056,1.06296
					c0.36649-17.38512-0.90256-34.61259-5.20755-51.50851c-4.30206-16.88425-11.25226-33.07607-20.49515-47.84441
					c-18.41162-29.41833-45.83148-52.87283-77.80072-66.39907c-33.30731-14.09239-70.98164-17.10499-106.12466-8.58576
					c-33.88019,8.2131-64.7917,27.08252-87.71803,53.32784c-23.16263,26.51585-37.65555,60.05003-41.01781,95.10304
					c-3.32995,34.71625,2.26603,70.01709,18.54348,101.02734c16.05161,30.57996,41.47656,55.92804,72.12071,71.86111
					c32.03235,16.65488,69.18037,22.58563,104.82953,16.94745c34.60011-5.47226,67.04689-21.9054,92.05138-46.42136
					c25.05826-24.56866,42.12735-56.76178,48.24323-91.32921c1.5127-8.54979,2.34369-17.20183,2.56851-25.87978
					C378.19144,195.26797,378.09323,192.73601,378.12955,191.33397z" fill="#832161" style=""></path>
			</g>
		</g>
		<circle cx="200" cy="200" r="164.01196" fill="#832161" style=""></circle>
	</g>
</g>


<desc>Created with Snap</desc><defs></defs></g><g><g transform="matrix(1.024,0,0,-1.024,0,0)"><path d="M264 0L248 683Q177 656 138 599Q99 543 99 461Q99 424 106 409Q113 395 113 393Q59 393 32 415Q6 438 6 490Q6 554 58 614Q111 675 193 712Q275 750 357 750Q371 750 397 748L406 133L616 745L743 745L752 133L962 745L1032 745L754 0L610 0L598 509L408 0L264 0ZM1105 -6Q1031 -6 990 32Q949 71 949 153Q949 222 976 305Q1003 388 1064 448Q1125 509 1219 509Q1329 509 1329 413Q1329 357 1297 310Q1265 263 1212 234Q1159 206 1099 202Q1097 172 1097 162Q1097 113 1114 95Q1131 78 1169 78Q1223 78 1261 103Q1300 128 1346 179L1380 179Q1269 -6 1105 -6ZM1107 250Q1144 252 1177 276Q1211 300 1231 337Q1252 374 1252 415Q1252 456 1227 456Q1191 456 1156 393Q1122 330 1107 250ZM1466 -6Q1409 -6 1371 33Q1333 72 1333 155Q1333 229 1362 310Q1392 392 1450 448Q1509 505 1590 505Q1631 505 1651 491Q1671 477 1671 454L1671 447L1682 500L1826 500L1754 160Q1750 145 1750 128Q1750 85 1791 85Q1819 85 1839 111Q1860 137 1872 179L1914 179Q1877 71 1822 32Q1768 -6 1713 -6Q1671 -6 1645 17Q1620 41 1615 86Q1586 45 1550 19Q1515 -6 1466 -6ZM1531 91Q1556 91 1580 114Q1605 138 1614 179L1662 405Q1662 418 1652 430Q1642 443 1621 443Q1581 443 1549 396Q1517 350 1499 284Q1481 219 1481 169Q1481 119 1495 105Q1510 91 1531 91ZM1834 0L1940 500L2084 500L2071 438Q2105 468 2132 484Q2160 500 2192 500Q2224 500 2242 478Q2261 456 2261 425Q2261 396 2242 374Q2223 352 2189 352Q2167 352 2159 362Q2152 373 2148 393Q2145 406 2142 412Q2139 418 2131 418Q2110 418 2095 409Q2081 401 2058 380L1978 0L1834 0ZM2347 -6Q2299 -6 2269 24Q2240 54 2240 114Q2240 139 2248 179L2355 680L2503 700L2388 160Q2384 145 2384 128Q2384 108 2393 99Q2403 91 2425 91Q2454 91 2479 115Q2504 140 2515 179L2557 179Q2520 71 2462 32Q2404 -6 2347 -6ZM2671 -250Q2623 -250 2591 -225Q2559 -200 2559 -153Q2559 -96 2605 -62Q2651 -27 2722 -4L2734 50Q2705 18 2675 6Q2645 -6 2614 -6Q2566 -6 2536 24Q2507 54 2507 114Q2507 139 2515 179L2583 500L2727 500L2655 160Q2652 148 2652 135Q2652 91 2682 91Q2708 91 2728 113Q2748 136 2760 173L2830 500L2974 500L2875 36Q2923 52 2952 84Q2981 116 3001 179L3043 179Q3016 90 2970 48Q2924 7 2866 -8L2851 -80Q2831 -177 2782 -214Q2733 -250 2671 -250ZM2648 -172Q2665 -172 2681 -149Q2697 -126 2706 -83L2712 -54Q2614 -90 2614 -139Q2614 -152 2623 -162Q2632 -172 2648 -172Z" fill="#f0dd7a" style=""></path></g></g></g></svg>